<svg xmlns="http://www.w3.org/2000/svg" xmlns:xlink="http://www.w3.org/1999/xlink" width="128" height="107" viewBox="0 0 128 107">
  <defs>
    <clipPath id="clip-top_40">
      <rect width="128" height="107"/>
    </clipPath>
  </defs>
  <g id="top_40" clip-path="url(#clip-top_40)">
    <rect width="128" height="107" fill="#040d23"/>
    <g id="Grupo_34" data-name="Grupo 34" transform="translate(42.62 27)">
      <path id="Caminho_192" data-name="Caminho 192" d="M41.939,1l5.6,5.6c-5.6,16.79,0,13.432,0,25.745,0,12.369-21.268,20.148-21.268,20.148S5,44.711,5,32.342C5,20.029,10.6,23.387,5,6.6L10.6,1c2.239,2.239,3.358,4.477,7.835,4.477,2.239,0,7.835-2,7.835-4.477,0,2.474,5.6,4.477,7.835,4.477C38.581,5.477,39.7,3.239,41.939,1ZM40.8,37.11c4.477-5.44,1.119-14.171,0-18.525S41.916,7.716,41.916,7.716c-2.239,2.172-3.358,3.257-7.835,3.257-2.16,0-7.477-.795-7.813-3.033a1.5,1.5,0,0,0,.011-.224h-.022a1.5,1.5,0,0,0,.011.224c-.336,2.239-5.653,3.033-7.813,3.033-4.477,0-5.6-1.086-7.835-3.257,0,0,2.239,6.526,1.119,10.869s-4.477,13.085,0,18.525c4.354,5.272,13.97,9.537,14.518,9.783h.022C26.827,46.647,36.443,42.383,40.8,37.11Z" transform="translate(-4.996 -1)" fill="#ffdc56"/>
      <path id="Caminho_194" data-name="Caminho 194" d="M42.62,19.418c-.187-.654-.358-1.255-.5-1.791-.978-3.8,1.061-9.85,1.081-9.907a1.679,1.679,0,0,0-2.757-1.747C38.3,8.057,37.58,8.758,33.782,8.758c-2.651,0-5.8-.944-6.156-1.629a1.688,1.688,0,0,0-1.65-1.423,1.659,1.659,0,0,0-1.657,1.41c-.33.687-3.5,1.641-6.156,1.641-3.8,0-4.521-.7-6.667-2.783A1.679,1.679,0,0,0,8.731,7.724c.576,1.679,1.9,6.743,1.08,9.907-.137.532-.308,1.133-.495,1.791-1.369,4.772-3.65,12.781.828,18.221,4.337,5.251,13.345,9.448,15.127,10.247a1.728,1.728,0,0,0,1.416-.01C28.448,47.1,37.456,42.894,41.8,37.641,46.272,32.2,43.99,24.194,42.62,19.418ZM40.5,36.574c-4.354,5.272-13.97,9.537-14.518,9.783h-.022c-.548-.246-10.164-4.511-14.518-9.783-4.477-5.44-1.119-14.171,0-18.525S10.32,7.18,10.32,7.18c2.239,2.172,3.358,3.257,7.835,3.257,2.16,0,7.477-.795,7.813-3.033.336,2.239,5.653,3.033,7.813,3.033,4.477,0,5.6-1.086,7.835-3.257,0,0-2.239,6.526-1.119,10.869S44.975,31.134,40.5,36.574Z" transform="translate(-4.697 -0.464)" fill="#ffca46"/>
      <g id="Grupo_19" data-name="Grupo 19" transform="translate(14.555 17.91)">
        <path id="Caminho_191" data-name="Caminho 191" d="M31.432,21.477l-3.358,3.358,1.119,5.6-4.477-3.358-4.477,3.358,1.119-5.6L18,21.477h4.477L24.716,17l2.239,4.477Z" transform="translate(-18 -17)" fill="#ffdc56"/>
        <path id="Caminho_193" data-name="Caminho 193" d="M28.074,24.835l3.358-3.358H26.955L24.716,17l-2.239,4.477H18l3.358,3.358-1.119,5.6,4.477-3.358,4.477,3.358Z" transform="translate(-18 -17)" fill="#a166f5"/>
        <path id="Caminho_196" data-name="Caminho 196" d="M31.432,21.477l-3.358,3.358,1.119,5.6-4.477-3.358-4.477,3.358,1.119-5.6L18,21.477h4.477L24.716,17l2.239,4.477Z" transform="translate(-18 -17)" fill="#ffa233"/>
        <path id="Caminho_197" data-name="Caminho 197" d="M22.477,21H18l6.716,2.239Z" transform="translate(-18 -16.522)" fill="#ffca46"/>
        <path id="Caminho_198" data-name="Caminho 198" d="M26.239,21.477,24,17v6.716Z" transform="translate(-17.284 -17)" fill="#ffca46"/>
        <path id="Caminho_199" data-name="Caminho 199" d="M24.239,17,22,21.477l2.239,2.239Z" transform="translate(-17.523 -17)" fill="#ffb337"/>
        <path id="Caminho_200" data-name="Caminho 200" d="M30.716,21H26.239L24,23.239Z" transform="translate(-17.284 -16.522)" fill="#ffb337"/>
        <path id="Caminho_201" data-name="Caminho 201" d="M27.358,24.358,30.716,21,24,23.239Z" transform="translate(-17.284 -16.522)" fill="#ff8d1f"/>
        <path id="Caminho_202" data-name="Caminho 202" d="M21.119,24.119,20,29.716,24.477,23Z" transform="translate(-17.761 -16.284)" fill="#ff711f"/>
        <path id="Caminho_203" data-name="Caminho 203" d="M24,26.358l4.477,3.358L24,23Z" transform="translate(-17.284 -16.284)" fill="#ff8d1f"/>
        <path id="Caminho_204" data-name="Caminho 204" d="M24,23l4.477,6.716-1.119-5.6Z" transform="translate(-17.284 -16.284)" fill="#ffb337"/>
        <path id="Caminho_205" data-name="Caminho 205" d="M20,29.716l4.477-3.358V23Z" transform="translate(-17.761 -16.284)" fill="#ffa233"/>
        <path id="Caminho_206" data-name="Caminho 206" d="M18,21l3.358,3.358,3.358-1.119Z" transform="translate(-18 -16.522)" fill="#ff8d1f"/>
      </g>
      <path id="Caminho_208" data-name="Caminho 208" d="M44.668,25.835a13.327,13.327,0,0,1-2.575,9.716C37.754,40.8,28.746,45,26.982,45.79a1.728,1.728,0,0,1-1.416.01c-1.782-.8-10.789-5-15.127-10.247a13.328,13.328,0,0,1-2.575-9.717A16.251,16.251,0,0,1,5.754,23,26.417,26.417,0,0,0,5,29.716C5,42.085,26.268,49.864,26.268,49.864s21.268-7.78,21.268-20.148A26.417,26.417,0,0,0,46.783,23a16.2,16.2,0,0,1-2.114,2.835Z" transform="translate(-4.997 1.626)" fill="#ffca46"/>
      <path id="Caminho_209" data-name="Caminho 209" d="M42.764,27.063A10.921,10.921,0,0,1,40.5,34.182c-4.354,5.272-13.97,9.537-14.518,9.783h-.022c-.548-.246-10.164-4.511-14.518-9.783a10.922,10.922,0,0,1-2.261-7.119,18.8,18.8,0,0,1-1.609-1.527,13.328,13.328,0,0,0,2.575,9.717C14.487,40.5,23.494,44.7,25.276,45.5a1.728,1.728,0,0,0,1.416-.01C28.453,44.706,37.46,40.5,41.8,35.251a13.327,13.327,0,0,0,2.575-9.716,18.637,18.637,0,0,1-1.614,1.528Z" transform="translate(-4.702 1.928)" fill="#040d23"/>
      <path id="Caminho_211" data-name="Caminho 211" d="M11.262,34.019c4.354,5.272,13.97,9.537,14.518,9.783H25.8c.548-.246,10.164-4.511,14.518-9.783A10.922,10.922,0,0,0,42.582,26.9a20.738,20.738,0,0,1-1.748,1.33,8.584,8.584,0,0,1-1.808,4.723c-3.476,4.205-10.836,7.881-13.234,9.007-2.366-1.112-9.751-4.793-13.233-9.007a8.584,8.584,0,0,1-1.809-4.725A20.346,20.346,0,0,1,9,26.9a10.922,10.922,0,0,0,2.261,7.119Z" transform="translate(-4.52 2.091)" fill="#040d23"/>
    </g>
  </g>
</svg>
