<svg xmlns="http://www.w3.org/2000/svg" xmlns:xlink="http://www.w3.org/1999/xlink" width="128" height="107" viewBox="0 0 128 107">
  <defs>
    <clipPath id="clip-top_60">
      <rect width="128" height="107"/>
    </clipPath>
  </defs>
  <g id="top_60" clip-path="url(#clip-top_60)">
    <rect width="128" height="107" fill="#040d23"/>
    <g id="Grupo_35" data-name="Grupo 35" transform="translate(46 30)">
      <path id="Caminho_62" data-name="Caminho 62" d="M45.242,5V9.155l-16.621,9.7L12,9.155V5l16.621,9.7Z" transform="translate(-10.615 1.925)" fill="#ffca46"/>
      <path id="Caminho_64" data-name="Caminho 64" d="M45.242,1V6.54l-16.621,9.7L12,6.54V1Z" transform="translate(-10.615 0.385)" fill="#040d23"/>
      <path id="Caminho_65" data-name="Caminho 65" d="M34.621,26.54,30.466,30.7l1.385,6.925-5.54-4.155-5.54,4.155L22.155,30.7,18,26.54h5.54L26.31,21l2.77,5.54Z" transform="translate(-8.304 8.087)" fill="#ffa233"/>
      <path id="Caminho_66" data-name="Caminho 66" d="M23.54,25H18l8.31,2.77Z" transform="translate(-8.304 9.627)" fill="#ffca46"/>
      <path id="Caminho_67" data-name="Caminho 67" d="M26.77,26.54,24,21v8.31Z" transform="translate(-5.994 8.087)" fill="#ffca46"/>
      <path id="Caminho_68" data-name="Caminho 68" d="M24.77,21,22,26.54l2.77,2.77Z" transform="translate(-6.764 8.087)" fill="#ffb337"/>
      <path id="Caminho_69" data-name="Caminho 69" d="M32.31,25H26.77L24,27.77Z" transform="translate(-5.994 9.627)" fill="#ffb337"/>
      <path id="Caminho_70" data-name="Caminho 70" d="M28.155,29.155,32.31,25,24,27.77Z" transform="translate(-5.994 9.627)" fill="#ff8d1f"/>
      <path id="Caminho_71" data-name="Caminho 71" d="M21.385,28.385,20,35.31,25.54,27Z" transform="translate(-7.534 10.397)" fill="#ff711f"/>
      <path id="Caminho_72" data-name="Caminho 72" d="M24,31.155l5.54,4.155L24,27Z" transform="translate(-5.994 10.397)" fill="#ff8d1f"/>
      <path id="Caminho_73" data-name="Caminho 73" d="M24,27l5.54,8.31-1.385-6.925Z" transform="translate(-5.994 10.397)" fill="#ffb337"/>
      <path id="Caminho_74" data-name="Caminho 74" d="M20,35.31l5.54-4.155V27Z" transform="translate(-7.534 10.397)" fill="#ffa233"/>
      <path id="Caminho_75" data-name="Caminho 75" d="M18,25l4.155,4.155L26.31,27.77Z" transform="translate(-8.304 9.627)" fill="#ff8d1f"/>
      <path id="Caminho_76" data-name="Caminho 76" d="M12,5V6.385l16.621,9.7,16.621-9.7V5L28.621,14.7Z" transform="translate(-10.615 1.925)" fill="#fff86a"/>
      <path id="Caminho_77" data-name="Caminho 77" d="M43.871,11.246l-15.25,8.892-15.25-8.892A2.791,2.791,0,0,1,12,8.85v2.77a2.791,2.791,0,0,0,1.371,2.4l15.25,8.892,15.25-8.892a2.791,2.791,0,0,0,1.371-2.4V8.85A2.791,2.791,0,0,1,43.871,11.246Z" transform="translate(-10.615 3.408)" fill="#040d23"/>
      <path id="Caminho_105" data-name="Caminho 105" d="M33.037,2h0Z" transform="translate(1.488 1.847)" fill="#040d23"/>
      <path id="Caminho_78" data-name="Caminho 78" d="M23,18.417v6.348l1.385-2.77,1.385,2.77V18.417l-1.385.808Z" transform="translate(-6.379 7.092)" fill="#ffa233"/>
      <path id="Caminho_81" data-name="Caminho 81" d="M45.627,0H12.385A1.385,1.385,0,0,0,11,1.385V15.03a4.168,4.168,0,0,0,2.061,3.589l15.253,8.895a1.385,1.385,0,0,0,1.4,0l15.247-8.895a4.168,4.168,0,0,0,2.055-3.589V1.385A1.385,1.385,0,0,0,45.627,0Zm0,15.03a2.77,2.77,0,0,1-1.374,2.393L29.006,26.317,13.759,17.423a2.77,2.77,0,0,1-1.374-2.393V1.385H45.627Z" transform="translate(-11)" fill="#ffa233"/>
    </g>
  </g>
</svg>
