<svg xmlns="http://www.w3.org/2000/svg" xmlns:xlink="http://www.w3.org/1999/xlink" width="128" height="107" viewBox="0 0 128 107">
  <defs>
    <clipPath id="clip-top_20">
      <rect width="128" height="107"/>
    </clipPath>
  </defs>
  <g id="top_20" clip-path="url(#clip-top_20)">
    <rect width="128" height="107" fill="#040d23"/>
    <g id="_11-reward" data-name="11-reward" transform="translate(34.864 23)">
      <path id="Caminho_395" data-name="Caminho 395" d="M33.451,18.15l-3.863,3.863,1.288,6.438-5.15-3.863-5.15,3.863,1.288-6.438L18,18.15h5.15L25.726,13,28.3,18.15Z" transform="translate(3.889 2.451)" fill="#ffdc56"/>
      <path id="Caminho_396" data-name="Caminho 396" d="M29.608,59.579a.644.644,0,0,1-.443-.176L7.929,39.274A10.986,10.986,0,0,1,4.5,31.319V6.144a.644.644,0,0,1,1.288,0V31.319a9.689,9.689,0,0,0,3.027,7.015L29.608,58.048,50.4,38.34a9.694,9.694,0,0,0,3.027-7.021V6.144a.644.644,0,1,1,1.288,0V31.319a10.991,10.991,0,0,1-3.429,7.956L30.051,59.4A.644.644,0,0,1,29.608,59.579Z" transform="translate(0.007 0.294)" fill="#ffa233"/>
      <path id="Caminho_397" data-name="Caminho 397" d="M49.3,23v2.575a2.583,2.583,0,0,1-2.575,2.575h-5.15A2.583,2.583,0,0,1,39,25.575V23h2.009a2.587,2.587,0,0,1,2.446,1.764l.7,2.1.7-2.1A2.587,2.587,0,0,1,47.292,23Z" transform="translate(9.929 5.327)" fill="#ffca46"/>
      <path id="Caminho_398" data-name="Caminho 398" d="M49.3,16v2.575a2.583,2.583,0,0,1-2.575,2.575h-5.15A2.583,2.583,0,0,1,39,18.575V16h2.009a2.587,2.587,0,0,1,2.446,1.764l.7,2.1.7-2.1A2.587,2.587,0,0,1,47.292,16Z" transform="translate(9.929 3.314)" fill="#ffca46"/>
      <path id="Caminho_399" data-name="Caminho 399" d="M49.3,9v2.575a2.583,2.583,0,0,1-2.575,2.575h-5.15A2.583,2.583,0,0,1,39,11.575V9h2.009a2.587,2.587,0,0,1,2.446,1.764l.7,2.1.7-2.1A2.587,2.587,0,0,1,47.292,9Z" transform="translate(9.929 1.301)" fill="#ffca46"/>
      <path id="Caminho_400" data-name="Caminho 400" d="M43.575,1S46.15,2.725,46.15,4.863s-2.575,3.863-2.575,3.863S41,7,41,4.863,43.575,1,43.575,1Z" transform="translate(10.504 -1)" fill="#ffca46"/>
      <path id="Caminho_401" data-name="Caminho 401" d="M46.287,34.825l-1.648,1.841a2.714,2.714,0,0,1-3.67.27L38.96,35.353l-2.009-1.584a2.332,2.332,0,0,1-.361-3.425l1.661-1.854,1.571,1.236a2.369,2.369,0,0,1,.773,2.768l-.811,1.931,1.906-1.069a2.754,2.754,0,0,1,3.039.232Z" transform="translate(9.067 6.906)" fill="#ffca46"/>
      <path id="Caminho_402" data-name="Caminho 402" d="M41.3,40.61l-1.906,1.906a2.7,2.7,0,0,1-3.8,0L33.69,40.61,31.785,38.7a2.7,2.7,0,0,1,0-3.8L33.69,33l1.481,1.481a2.685,2.685,0,0,1,.5,3.1l-1.03,2.073,2.073-1.03a2.685,2.685,0,0,1,3.1.5Z" transform="translate(7.629 8.203)" fill="#ffca46"/>
      <path id="Caminho_403" data-name="Caminho 403" d="M35.163,44.082l1.713,1.725L34.12,48.55a4.143,4.143,0,0,1-3.477,1.288,2.434,2.434,0,0,1-1.8-1.506l-.567-1.365A2.712,2.712,0,0,0,26.91,45.6l-1.365-.567a2.434,2.434,0,0,1-1.506-1.8,3.3,3.3,0,0,1-.039-.5,4.3,4.3,0,0,1,1.326-2.974L28.069,37l1.725,1.713A3.267,3.267,0,0,1,30,42.678l-.85,2.047,2.047-.85A3.267,3.267,0,0,1,35.163,44.082Z" transform="translate(5.615 9.353)" fill="#ffca46"/>
      <path id="Caminho_404" data-name="Caminho 404" d="M26.876,42.73a3.3,3.3,0,0,1-.039.5,2.434,2.434,0,0,1-1.506,1.8l-1.365.567A2.712,2.712,0,0,0,22.6,46.966l-.567,1.365a2.434,2.434,0,0,1-1.8,1.506,4.143,4.143,0,0,1-3.477-1.288L14,45.807l1.712-1.725a3.267,3.267,0,0,1,3.966-.206l2.047.85-.85-2.047a3.267,3.267,0,0,1,.206-3.966L22.807,37l2.743,2.755A4.3,4.3,0,0,1,26.876,42.73Z" transform="translate(2.739 9.353)" fill="#ffca46"/>
      <path id="Caminho_405" data-name="Caminho 405" d="M18.515,34.906a2.7,2.7,0,0,1,0,3.8L16.61,40.61,14.7,42.515a2.7,2.7,0,0,1-3.8,0L9,40.61l1.481-1.481a2.685,2.685,0,0,1,3.1-.5l2.073,1.03-1.03-2.073a2.685,2.685,0,0,1,.5-3.1L16.61,33Z" transform="translate(1.301 8.203)" fill="#ffca46"/>
      <path id="Caminho_406" data-name="Caminho 406" d="M13.706,30.344a2.332,2.332,0,0,1-.361,3.425l-2.009,1.584L9.328,36.937a2.714,2.714,0,0,1-3.67-.27L4.01,34.825l1.558-1.236a2.754,2.754,0,0,1,3.039-.232l1.906,1.069L9.7,32.494a2.369,2.369,0,0,1,.773-2.768l1.571-1.236Z" transform="translate(-0.134 6.906)" fill="#ffca46"/>
      <path id="Caminho_407" data-name="Caminho 407" d="M11.3,23v2.575A2.583,2.583,0,0,1,8.726,28.15H3.575A2.583,2.583,0,0,1,1,25.575V23H3.009a2.587,2.587,0,0,1,2.446,1.764l.7,2.1.7-2.1A2.587,2.587,0,0,1,9.292,23Z" transform="translate(-1 5.327)" fill="#ffca46"/>
      <path id="Caminho_408" data-name="Caminho 408" d="M11.3,16v2.575A2.583,2.583,0,0,1,8.726,21.15H3.575A2.583,2.583,0,0,1,1,18.575V16H3.009a2.587,2.587,0,0,1,2.446,1.764l.7,2.1.7-2.1A2.587,2.587,0,0,1,9.292,16Z" transform="translate(-1 3.314)" fill="#ffca46"/>
      <path id="Caminho_409" data-name="Caminho 409" d="M11.3,9v2.575A2.583,2.583,0,0,1,8.726,14.15H3.575A2.583,2.583,0,0,1,1,11.575V9H3.009a2.587,2.587,0,0,1,2.446,1.764l.7,2.1.7-2.1A2.587,2.587,0,0,1,9.292,9Z" transform="translate(-1 1.301)" fill="#ffca46"/>
      <path id="Caminho_410" data-name="Caminho 410" d="M5.575,1S8.15,2.725,8.15,4.863,5.575,8.726,5.575,8.726,3,7,3,4.863,5.575,1,5.575,1Z" transform="translate(-0.425 -1)" fill="#ffca46"/>
      <path id="Caminho_411" data-name="Caminho 411" d="M42.9,11.15V24.026a12.867,12.867,0,0,1-5.15,10.3l-10.3,7.726-10.3-7.726A12.867,12.867,0,0,1,12,24.026V11.15L27.451,6ZM31.314,24.026l3.863-3.863h-5.15l-2.575-5.15-2.575,5.15h-5.15l3.863,3.863L22.3,30.464l5.15-3.863,5.15,3.863Z" transform="translate(2.164 0.438)" fill="#040d23"/>
      <path id="Caminho_412" data-name="Caminho 412" d="M64.387,19.863V16S64.389,23.916,64.387,19.863Z" transform="translate(-19.321 3.314)" fill="#7655ff"/>
      <path id="Caminho_413" data-name="Caminho 413" d="M12,11.15V24.026a12.867,12.867,0,0,0,5.15,10.3l10.3,7.726,10.3-7.726a12.867,12.867,0,0,0,5.15-10.3V11.15L27.451,6ZM40.971,24.026a11,11,0,0,1-4.378,8.756l-9.142,6.856-9.142-6.856a11,11,0,0,1-4.378-8.756V12.542l13.52-4.507,13.52,4.507Z" transform="translate(2.164 0.438)" fill="#ffca46"/>
      <path id="Caminho_414" data-name="Caminho 414" d="M33.451,18.15l-3.863,3.863,1.288,6.438-5.15-3.863-5.15,3.863,1.288-6.438L18,18.15h5.15L25.726,13,28.3,18.15Z" transform="translate(3.889 2.451)" fill="#ffa233"/>
      <path id="Caminho_415" data-name="Caminho 415" d="M23.15,17H18l7.726,2.575Z" transform="translate(3.889 3.602)" fill="#ffca46"/>
      <path id="Caminho_416" data-name="Caminho 416" d="M26.575,18.15,24,13v7.726Z" transform="translate(5.615 2.451)" fill="#ffca46"/>
      <path id="Caminho_417" data-name="Caminho 417" d="M24.575,13,22,18.15l2.575,2.575Z" transform="translate(5.039 2.451)" fill="#ffb337"/>
      <path id="Caminho_418" data-name="Caminho 418" d="M31.726,17h-5.15L24,19.575Z" transform="translate(5.615 3.602)" fill="#ffb337"/>
      <path id="Caminho_419" data-name="Caminho 419" d="M27.863,20.863,31.726,17,24,19.575Z" transform="translate(5.615 3.602)" fill="#ff8d1f"/>
      <path id="Caminho_420" data-name="Caminho 420" d="M21.288,20.288,20,26.726,25.15,19Z" transform="translate(4.464 4.177)" fill="#ff711f"/>
      <path id="Caminho_421" data-name="Caminho 421" d="M24,22.863l5.15,3.863L24,19Z" transform="translate(5.615 4.177)" fill="#ff8d1f"/>
      <path id="Caminho_422" data-name="Caminho 422" d="M24,19l5.15,7.726-1.288-6.438Z" transform="translate(5.615 4.177)" fill="#ffb337"/>
      <path id="Caminho_423" data-name="Caminho 423" d="M20,26.726l5.15-3.863V19Z" transform="translate(4.464 4.177)" fill="#ffa233"/>
      <path id="Caminho_424" data-name="Caminho 424" d="M18,17l3.863,3.863,3.863-1.288Z" transform="translate(3.889 3.602)" fill="#ff8d1f"/>
      <path id="Caminho_426" data-name="Caminho 426" d="M43,1V8.726S45.575,7,45.575,4.863,43,1,43,1Z" transform="translate(11.079 -1)" fill="#fff86a"/>
      <path id="Caminho_427" data-name="Caminho 427" d="M45.575,28.15a2.583,2.583,0,0,0,2.575-2.575V23H46.142A2.587,2.587,0,0,0,43.7,24.764l-.7,2.1V28.15Z" transform="translate(11.079 5.327)" fill="#fff86a"/>
      <path id="Caminho_428" data-name="Caminho 428" d="M45.575,21.15a2.583,2.583,0,0,0,2.575-2.575V16H46.142A2.587,2.587,0,0,0,43.7,17.764l-.7,2.1V21.15Z" transform="translate(11.079 3.314)" fill="#fff86a"/>
      <path id="Caminho_429" data-name="Caminho 429" d="M48.15,11.575V9H46.142A2.587,2.587,0,0,0,43.7,10.764l-.7,2.1V14.15h2.575a2.583,2.583,0,0,0,2.575-2.575Z" transform="translate(11.079 1.301)" fill="#fff86a"/>
      <path id="Caminho_430" data-name="Caminho 430" d="M44.088,32.58a2.754,2.754,0,0,0-3.039-.232l-1.906,1.069.037-.089-.948.948.086.068,2.009,1.584a2.714,2.714,0,0,0,3.67-.27l1.648-1.841Z" transform="translate(9.708 7.915)" fill="#fff86a"/>
      <path id="Caminho_431" data-name="Caminho 431" d="M36.116,37.434l-2.073,1.03-.953.953L35,41.322a2.7,2.7,0,0,0,3.8,0L40.7,39.417l-1.481-1.481A2.685,2.685,0,0,0,36.116,37.434Z" transform="translate(8.229 9.396)" fill="#fff86a"/>
      <path id="Caminho_432" data-name="Caminho 432" d="M30.367,42.468l-2.047.85L26.888,44.75a2.7,2.7,0,0,1,.556.809l.567,1.365a2.434,2.434,0,0,0,1.8,1.506,4.143,4.143,0,0,0,3.477-1.288L36.045,44.4l-1.713-1.725A3.267,3.267,0,0,0,30.367,42.468Z" transform="translate(6.445 10.761)" fill="#fff86a"/>
      <path id="Caminho_433" data-name="Caminho 433" d="M5.575,1V8.726S3,7,3,4.863,5.575,1,5.575,1Z" transform="translate(-0.425 -1)" fill="#fff86a"/>
      <path id="Caminho_434" data-name="Caminho 434" d="M3.575,28.15A2.583,2.583,0,0,1,1,25.575V23H3.009a2.587,2.587,0,0,1,2.446,1.764l.7,2.1V28.15Z" transform="translate(-1 5.327)" fill="#fff86a"/>
      <path id="Caminho_435" data-name="Caminho 435" d="M3.575,21.15A2.583,2.583,0,0,1,1,18.575V16H3.009a2.587,2.587,0,0,1,2.446,1.764l.7,2.1V21.15Z" transform="translate(-1 3.314)" fill="#fff86a"/>
      <path id="Caminho_436" data-name="Caminho 436" d="M1,11.575V9H3.009a2.587,2.587,0,0,1,2.446,1.764l.7,2.1V14.15H3.575A2.583,2.583,0,0,1,1,11.575Z" transform="translate(-1 1.301)" fill="#fff86a"/>
      <path id="Caminho_437" data-name="Caminho 437" d="M5.568,32.58a2.754,2.754,0,0,1,3.039-.232l1.906,1.069-.037-.089.948.948-.086.068L9.328,35.928a2.714,2.714,0,0,1-3.67-.27L4.01,33.816Z" transform="translate(-0.134 7.915)" fill="#fff86a"/>
      <path id="Caminho_438" data-name="Caminho 438" d="M13.584,37.434l2.073,1.03.953.953L14.7,41.322a2.7,2.7,0,0,1-3.8,0L9,39.417l1.481-1.481a2.685,2.685,0,0,1,3.1-.5Z" transform="translate(1.301 9.396)" fill="#fff86a"/>
      <path id="Caminho_439" data-name="Caminho 439" d="M19.678,42.468l2.047.85,1.432,1.432a2.7,2.7,0,0,0-.556.809l-.567,1.365a2.434,2.434,0,0,1-1.8,1.506,4.143,4.143,0,0,1-3.477-1.288L14,44.4l1.712-1.725A3.267,3.267,0,0,1,19.678,42.468Z" transform="translate(2.739 10.761)" fill="#fff86a"/>
    </g>
  </g>
</svg>
