<svg xmlns="http://www.w3.org/2000/svg" xmlns:xlink="http://www.w3.org/1999/xlink" width="128" height="107" viewBox="0 0 128 107">
  <defs>
    <clipPath id="clip-top_outros">
      <rect width="128" height="107"/>
    </clipPath>
  </defs>
  <g id="top_outros" clip-path="url(#clip-top_outros)">
    <rect width="128" height="107" fill="#040d23"/>
    <g id="Grupo_37" data-name="Grupo 37" transform="translate(42.371 31)">
      <g id="_20-medal" data-name="20-medal" transform="translate(0 0)">
        <path id="Caminho_224" data-name="Caminho 224" d="M15.874,4.792l7.243,6.637h-4.74L7,1h4.74Z" transform="translate(-1.312 -1)" fill="#0091ff"/>
        <path id="Caminho_225" data-name="Caminho 225" d="M31.243,4.792,35.377,1h5.688L28.74,11.429H24Z" transform="translate(-2.194 -1)" fill="#0091ff"/>
        <path id="Caminho_226" data-name="Caminho 226" d="M18.065,11.429H15.221L1,1H6.688Z" transform="translate(-1 -1)" fill="#006ab9"/>
        <path id="Caminho_227" data-name="Caminho 227" d="M46.065,1,31.844,11.429H29L41.325,1Z" transform="translate(-2.454 -1)" fill="#006ab9"/>
        <path id="Caminho_229" data-name="Caminho 229" d="M23.585,12h7.585v4.74l-.057.1a15.163,15.163,0,0,0-15.055,0L16,16.74V12Z" transform="translate(-1.779 -1.571)" fill="#ffa233"/>
        <path id="Caminho_230" data-name="Caminho 230" d="M30.7,17a15.164,15.164,0,1,1-7.528-2A15.164,15.164,0,0,1,30.7,17Zm3.849,13.169A11.377,11.377,0,1,0,23.169,41.546,11.377,11.377,0,0,0,34.546,30.169Z" transform="translate(-1.364 -1.727)" fill="#ffdc56"/>
        <path id="Caminho_233" data-name="Caminho 233" d="M23.325,18A12.325,12.325,0,1,0,35.65,30.325,12.325,12.325,0,0,0,23.325,18Zm0,23.7A11.377,11.377,0,1,1,34.7,30.325,11.377,11.377,0,0,1,23.325,41.7Z" transform="translate(-1.519 -1.883)" fill="#ff711f"/>
        <path id="Caminho_234" data-name="Caminho 234" d="M16.057,16.948a15.163,15.163,0,0,1,15.055,0l.057-.1V15.9A16.1,16.1,0,0,0,16,15.9v.948Z" transform="translate(-1.779 -1.675)" fill="#ffa233"/>
      </g>
      <g id="Grupo_21" data-name="Grupo 21" transform="translate(15.681 22.422)">
        <path id="Caminho_191" data-name="Caminho 191" d="M29.817,20.939l-2.954,2.954.985,4.924-3.939-2.954-3.939,2.954.985-4.924L18,20.939h3.939L23.908,17l1.969,3.939Z" transform="translate(-18 -17)" fill="#ffdc56"/>
        <path id="Caminho_193" data-name="Caminho 193" d="M26.863,23.893l2.954-2.954H25.878L23.908,17l-1.969,3.939H18l2.954,2.954-.985,4.924,3.939-2.954,3.939,2.954Z" transform="translate(-18 -17)" fill="#a166f5"/>
        <path id="Caminho_196" data-name="Caminho 196" d="M29.817,20.939l-2.954,2.954.985,4.924-3.939-2.954-3.939,2.954.985-4.924L18,20.939h3.939L23.908,17l1.969,3.939Z" transform="translate(-18 -17)" fill="#ffa233"/>
        <path id="Caminho_197" data-name="Caminho 197" d="M21.939,21H18l5.908,1.969Z" transform="translate(-18 -17.061)" fill="#ffca46"/>
        <path id="Caminho_198" data-name="Caminho 198" d="M25.969,20.939,24,17v5.908Z" transform="translate(-18.092 -17)" fill="#ffca46"/>
        <path id="Caminho_199" data-name="Caminho 199" d="M23.969,17,22,20.939l1.969,1.969Z" transform="translate(-18.061 -17)" fill="#ffb337"/>
        <path id="Caminho_200" data-name="Caminho 200" d="M29.908,21H25.969L24,22.969Z" transform="translate(-18.092 -17.061)" fill="#ffb337"/>
        <path id="Caminho_201" data-name="Caminho 201" d="M26.954,23.954,29.908,21,24,22.969Z" transform="translate(-18.092 -17.061)" fill="#ff8d1f"/>
        <path id="Caminho_202" data-name="Caminho 202" d="M20.985,23.985,20,28.908,23.939,23Z" transform="translate(-18.031 -17.092)" fill="#ff711f"/>
        <path id="Caminho_203" data-name="Caminho 203" d="M24,25.954l3.939,2.954L24,23Z" transform="translate(-18.092 -17.092)" fill="#ff8d1f"/>
        <path id="Caminho_204" data-name="Caminho 204" d="M24,23l3.939,5.908-.985-4.924Z" transform="translate(-18.092 -17.092)" fill="#ffb337"/>
        <path id="Caminho_205" data-name="Caminho 205" d="M20,28.908l3.939-2.954V23Z" transform="translate(-18.031 -17.092)" fill="#ffa233"/>
        <path id="Caminho_206" data-name="Caminho 206" d="M18,21l2.954,2.954,2.954-.985Z" transform="translate(-18 -17.061)" fill="#ff8d1f"/>
      </g>
    </g>
  </g>
</svg>
